<mxfile host="app.diagrams.net" agent="Mozilla/5.0 (Macintosh; Intel Mac OS X 10_15_7) AppleWebKit/537.36 (KHTML, like Gecko) Chrome/133.0.0.0 Safari/537.36" version="26.0.15">
  <diagram name="Page-1" id="kzm3Gh8i-jGuQKAOYgxD">
    <mxGraphModel dx="1909" dy="561" grid="1" gridSize="10" guides="1" tooltips="1" connect="1" arrows="1" fold="1" page="1" pageScale="1" pageWidth="850" pageHeight="1100" math="0" shadow="0">
      <root>
        <mxCell id="0" />
        <mxCell id="1" parent="0" />
        <mxCell id="jPRHqAiCdGyqLTujWerM-7" value="" style="rounded=1;whiteSpace=wrap;html=1;" vertex="1" parent="1">
          <mxGeometry x="320" y="270" width="390" height="600" as="geometry" />
        </mxCell>
        <mxCell id="jPRHqAiCdGyqLTujWerM-5" value="" style="edgeStyle=orthogonalEdgeStyle;rounded=0;orthogonalLoop=1;jettySize=auto;html=1;" edge="1" parent="1" source="jPRHqAiCdGyqLTujWerM-1" target="jPRHqAiCdGyqLTujWerM-4">
          <mxGeometry relative="1" as="geometry" />
        </mxCell>
        <mxCell id="jPRHqAiCdGyqLTujWerM-1" value="Client" style="shape=umlActor;verticalLabelPosition=bottom;verticalAlign=top;html=1;outlineConnect=0;" vertex="1" parent="1">
          <mxGeometry x="500" y="50" width="30" height="60" as="geometry" />
        </mxCell>
        <mxCell id="jPRHqAiCdGyqLTujWerM-9" style="edgeStyle=orthogonalEdgeStyle;rounded=0;orthogonalLoop=1;jettySize=auto;html=1;entryX=0.5;entryY=0;entryDx=0;entryDy=0;" edge="1" parent="1" source="jPRHqAiCdGyqLTujWerM-4" target="jPRHqAiCdGyqLTujWerM-8">
          <mxGeometry relative="1" as="geometry" />
        </mxCell>
        <mxCell id="jPRHqAiCdGyqLTujWerM-4" value="LoadBalancer" style="rounded=1;whiteSpace=wrap;html=1;" vertex="1" parent="1">
          <mxGeometry x="455" y="160" width="120" height="60" as="geometry" />
        </mxCell>
        <mxCell id="jPRHqAiCdGyqLTujWerM-6" value="HTTPS" style="text;html=1;align=center;verticalAlign=middle;whiteSpace=wrap;rounded=0;" vertex="1" parent="1">
          <mxGeometry x="520" y="140" width="60" height="30" as="geometry" />
        </mxCell>
        <mxCell id="jPRHqAiCdGyqLTujWerM-19" style="edgeStyle=orthogonalEdgeStyle;rounded=0;orthogonalLoop=1;jettySize=auto;html=1;entryX=0;entryY=0.5;entryDx=0;entryDy=0;" edge="1" parent="1" source="jPRHqAiCdGyqLTujWerM-8" target="jPRHqAiCdGyqLTujWerM-11">
          <mxGeometry relative="1" as="geometry">
            <Array as="points">
              <mxPoint x="520" y="430" />
            </Array>
          </mxGeometry>
        </mxCell>
        <mxCell id="jPRHqAiCdGyqLTujWerM-20" style="edgeStyle=orthogonalEdgeStyle;rounded=0;orthogonalLoop=1;jettySize=auto;html=1;entryX=0;entryY=0.5;entryDx=0;entryDy=0;" edge="1" parent="1" source="jPRHqAiCdGyqLTujWerM-8" target="jPRHqAiCdGyqLTujWerM-12">
          <mxGeometry relative="1" as="geometry">
            <Array as="points">
              <mxPoint x="510" y="520" />
            </Array>
          </mxGeometry>
        </mxCell>
        <mxCell id="jPRHqAiCdGyqLTujWerM-21" style="edgeStyle=orthogonalEdgeStyle;rounded=0;orthogonalLoop=1;jettySize=auto;html=1;entryX=0;entryY=0.5;entryDx=0;entryDy=0;" edge="1" parent="1" source="jPRHqAiCdGyqLTujWerM-8" target="jPRHqAiCdGyqLTujWerM-14">
          <mxGeometry relative="1" as="geometry">
            <Array as="points">
              <mxPoint x="500" y="610" />
            </Array>
          </mxGeometry>
        </mxCell>
        <mxCell id="jPRHqAiCdGyqLTujWerM-22" style="edgeStyle=orthogonalEdgeStyle;rounded=0;orthogonalLoop=1;jettySize=auto;html=1;entryX=0;entryY=0.5;entryDx=0;entryDy=0;" edge="1" parent="1" source="jPRHqAiCdGyqLTujWerM-8" target="jPRHqAiCdGyqLTujWerM-13">
          <mxGeometry relative="1" as="geometry">
            <Array as="points">
              <mxPoint x="490" y="700" />
            </Array>
          </mxGeometry>
        </mxCell>
        <mxCell id="jPRHqAiCdGyqLTujWerM-8" value="API GateWay" style="shape=process;whiteSpace=wrap;html=1;backgroundOutline=1;" vertex="1" parent="1">
          <mxGeometry x="455" y="300" width="120" height="60" as="geometry" />
        </mxCell>
        <mxCell id="jPRHqAiCdGyqLTujWerM-10" value="HTTPS" style="text;html=1;align=center;verticalAlign=middle;whiteSpace=wrap;rounded=0;" vertex="1" parent="1">
          <mxGeometry x="520" y="280" width="60" height="30" as="geometry" />
        </mxCell>
        <mxCell id="jPRHqAiCdGyqLTujWerM-11" value="FrontEnd" style="rounded=0;whiteSpace=wrap;html=1;" vertex="1" parent="1">
          <mxGeometry x="540" y="400" width="120" height="60" as="geometry" />
        </mxCell>
        <mxCell id="jPRHqAiCdGyqLTujWerM-12" value="BackEnd" style="rounded=0;whiteSpace=wrap;html=1;" vertex="1" parent="1">
          <mxGeometry x="540" y="490" width="120" height="60" as="geometry" />
        </mxCell>
        <mxCell id="jPRHqAiCdGyqLTujWerM-13" value="ULS" style="rounded=0;whiteSpace=wrap;html=1;" vertex="1" parent="1">
          <mxGeometry x="540" y="670" width="120" height="60" as="geometry" />
        </mxCell>
        <mxCell id="jPRHqAiCdGyqLTujWerM-14" value="HUEY" style="rounded=0;whiteSpace=wrap;html=1;" vertex="1" parent="1">
          <mxGeometry x="540" y="580" width="120" height="60" as="geometry" />
        </mxCell>
        <mxCell id="jPRHqAiCdGyqLTujWerM-24" value="Redis" style="shape=cylinder3;whiteSpace=wrap;html=1;boundedLbl=1;backgroundOutline=1;size=15;" vertex="1" parent="1">
          <mxGeometry x="570" y="770" width="60" height="80" as="geometry" />
        </mxCell>
        <mxCell id="jPRHqAiCdGyqLTujWerM-25" style="edgeStyle=orthogonalEdgeStyle;rounded=0;orthogonalLoop=1;jettySize=auto;html=1;entryX=0.5;entryY=0;entryDx=0;entryDy=0;entryPerimeter=0;" edge="1" parent="1" source="jPRHqAiCdGyqLTujWerM-13" target="jPRHqAiCdGyqLTujWerM-24">
          <mxGeometry relative="1" as="geometry" />
        </mxCell>
        <mxCell id="jPRHqAiCdGyqLTujWerM-26" value="ClickHouse" style="shape=cylinder3;whiteSpace=wrap;html=1;boundedLbl=1;backgroundOutline=1;size=15;" vertex="1" parent="1">
          <mxGeometry x="750" y="760" width="80" height="100" as="geometry" />
        </mxCell>
        <mxCell id="jPRHqAiCdGyqLTujWerM-29" style="edgeStyle=orthogonalEdgeStyle;rounded=0;orthogonalLoop=1;jettySize=auto;html=1;entryX=0.5;entryY=0;entryDx=0;entryDy=0;entryPerimeter=0;" edge="1" parent="1" source="jPRHqAiCdGyqLTujWerM-13" target="jPRHqAiCdGyqLTujWerM-26">
          <mxGeometry relative="1" as="geometry">
            <Array as="points">
              <mxPoint x="630" y="740" />
              <mxPoint x="790" y="740" />
            </Array>
          </mxGeometry>
        </mxCell>
        <mxCell id="jPRHqAiCdGyqLTujWerM-30" value="MySQL" style="shape=cylinder3;whiteSpace=wrap;html=1;boundedLbl=1;backgroundOutline=1;size=15;" vertex="1" parent="1">
          <mxGeometry x="480" y="770" width="60" height="80" as="geometry" />
        </mxCell>
        <mxCell id="jPRHqAiCdGyqLTujWerM-31" style="edgeStyle=orthogonalEdgeStyle;rounded=0;orthogonalLoop=1;jettySize=auto;html=1;entryX=0.5;entryY=0;entryDx=0;entryDy=0;entryPerimeter=0;" edge="1" parent="1" source="jPRHqAiCdGyqLTujWerM-12" target="jPRHqAiCdGyqLTujWerM-30">
          <mxGeometry relative="1" as="geometry">
            <Array as="points">
              <mxPoint x="600" y="560" />
              <mxPoint x="510" y="560" />
              <mxPoint x="510" y="770" />
            </Array>
          </mxGeometry>
        </mxCell>
        <mxCell id="jPRHqAiCdGyqLTujWerM-32" value="HTTP" style="text;html=1;align=center;verticalAlign=middle;whiteSpace=wrap;rounded=0;" vertex="1" parent="1">
          <mxGeometry x="440" y="370" width="60" height="30" as="geometry" />
        </mxCell>
        <mxCell id="jPRHqAiCdGyqLTujWerM-34" value="" style="rounded=1;whiteSpace=wrap;html=1;" vertex="1" parent="1">
          <mxGeometry x="-600" y="270" width="700" height="600" as="geometry" />
        </mxCell>
        <mxCell id="jPRHqAiCdGyqLTujWerM-35" value="Варианты Исполнения" style="text;html=1;align=center;verticalAlign=middle;whiteSpace=wrap;rounded=0;" vertex="1" parent="1">
          <mxGeometry x="-345" y="310" width="190" height="30" as="geometry" />
        </mxCell>
        <mxCell id="jPRHqAiCdGyqLTujWerM-36" value="" style="rounded=1;whiteSpace=wrap;html=1;" vertex="1" parent="1">
          <mxGeometry x="-580" y="360" width="320" height="480" as="geometry" />
        </mxCell>
        <mxCell id="jPRHqAiCdGyqLTujWerM-38" value="" style="rounded=1;whiteSpace=wrap;html=1;" vertex="1" parent="1">
          <mxGeometry x="-240" y="360" width="320" height="480" as="geometry" />
        </mxCell>
        <mxCell id="jPRHqAiCdGyqLTujWerM-39" value="OneNode" style="text;html=1;align=center;verticalAlign=middle;whiteSpace=wrap;rounded=0;" vertex="1" parent="1">
          <mxGeometry x="-455" y="330" width="60" height="30" as="geometry" />
        </mxCell>
        <mxCell id="jPRHqAiCdGyqLTujWerM-40" value="Cluster" style="text;html=1;align=center;verticalAlign=middle;whiteSpace=wrap;rounded=0;" vertex="1" parent="1">
          <mxGeometry x="-110" y="330" width="60" height="30" as="geometry" />
        </mxCell>
        <mxCell id="jPRHqAiCdGyqLTujWerM-42" value="container" style="rounded=0;whiteSpace=wrap;html=1;" vertex="1" parent="1">
          <mxGeometry x="-480" y="410" width="120" height="60" as="geometry" />
        </mxCell>
        <mxCell id="jPRHqAiCdGyqLTujWerM-43" value="FrontEnd/BackEnd" style="text;html=1;align=center;verticalAlign=middle;whiteSpace=wrap;rounded=0;" vertex="1" parent="1">
          <mxGeometry x="-477.5" y="380" width="115" height="30" as="geometry" />
        </mxCell>
        <mxCell id="jPRHqAiCdGyqLTujWerM-44" value="&lt;font style=&quot;font-size: 8px;&quot;&gt;FRONT-PORT: 8080&lt;/font&gt;&lt;div&gt;&lt;font style=&quot;font-size: 8px;&quot;&gt;BACK-PORT: 8880&amp;nbsp;&amp;nbsp;&lt;/font&gt;&lt;/div&gt;" style="text;html=1;align=center;verticalAlign=middle;whiteSpace=wrap;rounded=0;" vertex="1" parent="1">
          <mxGeometry x="-570" y="410" width="80" height="60" as="geometry" />
        </mxCell>
        <mxCell id="jPRHqAiCdGyqLTujWerM-56" style="edgeStyle=orthogonalEdgeStyle;rounded=0;orthogonalLoop=1;jettySize=auto;html=1;entryX=0;entryY=0.5;entryDx=0;entryDy=0;exitX=1;exitY=0.382;exitDx=0;exitDy=0;exitPerimeter=0;" edge="1" parent="1" source="jPRHqAiCdGyqLTujWerM-45" target="jPRHqAiCdGyqLTujWerM-49">
          <mxGeometry relative="1" as="geometry" />
        </mxCell>
        <mxCell id="jPRHqAiCdGyqLTujWerM-45" value="N&lt;div&gt;G&lt;/div&gt;&lt;div&gt;I&lt;/div&gt;&lt;div&gt;N&lt;/div&gt;&lt;div&gt;X&lt;/div&gt;" style="rounded=0;whiteSpace=wrap;html=1;" vertex="1" parent="1">
          <mxGeometry x="-140" y="415" width="30" height="85" as="geometry" />
        </mxCell>
        <mxCell id="jPRHqAiCdGyqLTujWerM-47" value="&lt;div&gt;&lt;font style=&quot;font-size: 8px;&quot;&gt;NGINX-PORT:&amp;nbsp; &amp;nbsp; 8080&lt;/font&gt;&lt;/div&gt;&lt;div&gt;&lt;span style=&quot;font-size: 8px;&quot;&gt;FRONT-PORT1: 8081&lt;/span&gt;&lt;/div&gt;&lt;div&gt;&lt;span style=&quot;font-size: 8px; background-color: transparent; color: light-dark(rgb(0, 0, 0), rgb(255, 255, 255));&quot;&gt;FRONT&lt;/span&gt;&lt;span style=&quot;font-size: 8px;&quot;&gt;-PORT2: 8082&lt;/span&gt;&lt;/div&gt;&lt;div&gt;&lt;span style=&quot;font-size: 8px; background-color: transparent; color: light-dark(rgb(0, 0, 0), rgb(255, 255, 255));&quot;&gt;FRONT&lt;/span&gt;&lt;span style=&quot;font-size: 8px;&quot;&gt;-PORT3: 8083&lt;/span&gt;&lt;/div&gt;&lt;div&gt;&lt;span style=&quot;font-size: 8px;&quot;&gt;BACK-PORT1:&amp;nbsp; &amp;nbsp;8881&lt;/span&gt;&lt;/div&gt;&lt;div&gt;&lt;span style=&quot;font-size: 8px;&quot;&gt;BACK-PORT2:&amp;nbsp; &amp;nbsp;8882&lt;/span&gt;&lt;/div&gt;&lt;div&gt;&lt;span style=&quot;font-size: 8px;&quot;&gt;BACK-PORT3:&amp;nbsp; &amp;nbsp;8883&lt;/span&gt;&lt;/div&gt;" style="text;html=1;align=center;verticalAlign=middle;whiteSpace=wrap;rounded=0;" vertex="1" parent="1">
          <mxGeometry x="-230" y="410" width="90" height="105" as="geometry" />
        </mxCell>
        <mxCell id="jPRHqAiCdGyqLTujWerM-49" value="container" style="rounded=0;whiteSpace=wrap;html=1;" vertex="1" parent="1">
          <mxGeometry x="-100" y="415" width="110" height="65" as="geometry" />
        </mxCell>
        <mxCell id="jPRHqAiCdGyqLTujWerM-51" value="container" style="rounded=0;whiteSpace=wrap;html=1;" vertex="1" parent="1">
          <mxGeometry x="-90" y="425" width="110" height="65" as="geometry" />
        </mxCell>
        <mxCell id="jPRHqAiCdGyqLTujWerM-52" value="container" style="rounded=0;whiteSpace=wrap;html=1;" vertex="1" parent="1">
          <mxGeometry x="-80" y="435" width="110" height="65" as="geometry" />
        </mxCell>
        <mxCell id="jPRHqAiCdGyqLTujWerM-54" style="edgeStyle=orthogonalEdgeStyle;rounded=0;orthogonalLoop=1;jettySize=auto;html=1;entryX=0;entryY=0.5;entryDx=0;entryDy=0;" edge="1" parent="1" source="jPRHqAiCdGyqLTujWerM-45" target="jPRHqAiCdGyqLTujWerM-52">
          <mxGeometry relative="1" as="geometry">
            <Array as="points">
              <mxPoint x="-90" y="468" />
            </Array>
          </mxGeometry>
        </mxCell>
        <mxCell id="jPRHqAiCdGyqLTujWerM-55" style="edgeStyle=orthogonalEdgeStyle;rounded=0;orthogonalLoop=1;jettySize=auto;html=1;entryX=0;entryY=0.5;entryDx=0;entryDy=0;" edge="1" parent="1" source="jPRHqAiCdGyqLTujWerM-45" target="jPRHqAiCdGyqLTujWerM-51">
          <mxGeometry relative="1" as="geometry" />
        </mxCell>
        <mxCell id="jPRHqAiCdGyqLTujWerM-58" value="FrontEnd/BackEnd" style="text;html=1;align=center;verticalAlign=middle;whiteSpace=wrap;rounded=0;" vertex="1" parent="1">
          <mxGeometry x="-137.5" y="380" width="115" height="30" as="geometry" />
        </mxCell>
      </root>
    </mxGraphModel>
  </diagram>
</mxfile>
